<svg width="1080" height="1080" viewBox="0 0 1080 1080" fill="none" xmlns="http://www.w3.org/2000/svg">
<path d="M0 100C0 44.7715 44.7715 0 100 0H980C1035.23 0 1080 44.7715 1080 100V980C1080 1035.23 1035.23 1080 980 1080H100C44.7715 1080 0 1035.23 0 980V100Z" fill="#4190F1"/>
<path fill-rule="evenodd" clip-rule="evenodd" d="M829.731 744.968C814.896 751.792 799.171 755.204 782.555 755.204C799.171 755.204 815.193 752.089 829.731 744.968Z" fill="white"/>
<path fill-rule="evenodd" clip-rule="evenodd" d="M782.555 755.204C799.171 755.204 815.193 752.089 829.731 744.968C814.896 751.792 799.171 755.204 782.555 755.204Z" fill="white"/>
<path fill-rule="evenodd" clip-rule="evenodd" d="M782.555 755.204C799.171 755.204 815.193 752.089 829.731 744.968C814.896 751.792 799.171 755.204 782.555 755.204Z" fill="white"/>
<path fill-rule="evenodd" clip-rule="evenodd" d="M829.731 744.968C814.896 751.792 799.171 755.204 782.555 755.204C799.171 755.204 815.193 752.089 829.731 744.968Z" fill="white"/>
<path fill-rule="evenodd" clip-rule="evenodd" d="M626.228 860.183C629.88 865.248 635.743 868.248 641.987 868.248C652.718 868.248 661.417 859.549 661.417 848.819V838.109L661.501 838.163C671.593 844.654 682.126 850.529 693.099 855.787C707.341 862.314 722.028 867.507 737.16 871.364C751.995 875.221 767.127 877.15 782.555 877.15C816.083 877.15 847.682 870.919 877.352 858.457C906.726 845.699 932.539 828.193 954.791 805.941C976.747 783.391 994.104 756.836 1006.86 726.276C1019.62 695.418 1026 661.891 1026 625.693C1026 589.792 1019.62 556.413 1006.86 525.556C994.104 494.698 976.747 467.995 954.791 445.445C939.493 429.943 922.511 416.754 903.846 405.879L903.61 405.741C895.199 400.853 886.446 396.434 877.352 392.484C847.682 379.726 816.083 373.346 782.555 373.346C749.028 373.346 717.429 379.726 687.759 392.484C678.665 396.434 669.912 400.853 661.501 405.741L661.442 263.182C661.428 229.388 634.029 202 600.235 202C566.431 202 539.027 229.404 539.027 263.208V405.741C530.616 400.853 521.863 396.434 512.769 392.484C483.099 379.726 451.5 373.346 417.972 373.346C384.445 373.346 352.846 379.726 323.176 392.484C314.082 396.434 305.329 400.853 296.918 405.741V324.39H354.227C388.025 324.39 415.423 296.992 415.423 263.195C415.423 229.398 388.025 202 354.227 202H114.195C80.398 202 53 229.398 53 263.195C53 296.992 80.3981 324.39 114.195 324.39H174.528V848.819C174.528 859.549 183.227 868.248 193.957 868.248C200.201 868.248 206.065 865.248 209.717 860.183L247.542 807.728C269.382 829.133 294.593 846.043 323.176 858.457C352.846 870.919 384.445 877.15 417.972 877.15C451.5 877.15 483.099 870.919 512.769 858.457C521.893 854.494 530.674 850.073 539.111 845.194C557.104 834.789 573.535 822.3 588.403 807.728L626.228 860.183ZM697.105 536.237C686.127 548.105 677.523 561.902 671.292 577.627C668.436 584.377 666.205 591.241 664.599 598.218C662.533 607.188 661.501 616.347 661.501 625.693C661.501 641.456 664.438 656.818 670.313 671.78C670.768 673.039 671.243 674.292 671.737 675.539C677.968 691.265 686.424 705.061 697.105 716.93C708.083 728.798 720.841 738.144 735.38 744.968C750.215 751.792 765.94 755.204 782.555 755.204C799.171 755.204 815.193 752.089 829.731 744.968C844.27 738.144 857.028 728.798 868.006 716.93C878.687 705.061 887.143 691.265 893.374 675.539L893.551 675.09C893.983 673.989 894.397 672.89 894.798 671.78C900.673 656.818 903.61 641.456 903.61 625.693C903.61 616.759 902.667 607.997 900.779 599.406C899.234 589.454 896.765 580.117 893.374 571.396C887.143 555.374 878.687 541.874 868.006 530.896C857.028 519.621 844.27 511.017 829.731 505.083C814.896 499.149 799.171 496.182 782.555 496.182C765.94 496.182 750.363 499.891 735.825 507.308C720.99 514.429 708.083 524.072 697.105 536.237ZM332.522 536.237C321.544 548.105 312.94 561.902 306.709 577.627C303.853 584.377 301.622 591.241 300.016 598.218C297.95 607.188 296.918 616.347 296.918 625.693C296.918 641.456 299.855 656.818 305.73 671.78C306.185 673.039 306.66 674.292 307.154 675.539C313.385 691.265 321.841 705.061 332.522 716.93C343.5 728.798 356.258 738.144 370.797 744.968C385.632 751.792 401.357 755.204 417.972 755.204C434.588 755.204 450.313 751.792 465.148 744.968C479.687 738.144 492.445 728.798 503.423 716.93C514.104 705.061 522.56 691.265 528.791 675.539L528.968 675.09C529.4 673.989 529.814 672.89 530.215 671.78C536.09 656.818 539.027 641.456 539.027 625.693C539.027 616.759 538.084 607.997 536.197 599.406C534.651 589.454 532.183 580.117 528.791 571.396C522.56 555.374 514.104 541.874 503.423 530.896C492.445 519.621 479.687 511.017 465.148 505.083C450.313 499.149 434.588 496.182 417.972 496.182C401.357 496.182 385.78 499.891 371.242 507.308C356.407 514.429 343.5 524.072 332.522 536.237Z" fill="white"/>
</svg>
